<svg fill="#000000" height="800px" width="800px" version="1.1" id="Layer_1" xmlns="http://www.w3.org/2000/svg" xmlns:xlink="http://www.w3.org/1999/xlink" 
	 viewBox="0 0 480.626 480.626" xml:space="preserve">
<path d="M446.417,34.199C424.37,12.152,393.46,0.01,359.382,0.01c-45.344,0-92.063,20.713-128.177,56.828
	c-24.13,24.13-41.422,52.983-50.225,83.248l-60.543,198.881L0,459.403l21.213,21.213L141.65,360.178l198.347-60.379
	c30.296-8.724,59.446-26.053,83.781-50.388c31.312-31.311,51.125-70.574,55.791-110.556
	C484.388,97.563,472.614,60.395,446.417,34.199z M449.771,135.378c-1.456,12.477-4.721,24.907-9.63,36.97l-27.488-27.488
	l37.15-37.15C450.881,116.517,450.891,125.784,449.771,135.378z M439.831,75.257l-48.39,48.39l-34.472-34.472l48.393-48.393
	c7.305,3.875,13.965,8.751,19.843,14.629C431.072,61.28,435.956,67.945,439.831,75.257z M333.745,270.343l-3.569,1.087
	c-11.474,3.158-23.089,4.81-34.562,4.809c-4.634,0-9.137-0.286-13.522-0.818l37.135-37.136l27.495,27.495
	c-4.286,1.749-8.611,3.291-12.962,4.612L333.745,270.343z M249.623,265.465c-7.306-3.875-13.966-8.751-19.844-14.629
	c-5.867-5.867-10.752-12.533-14.626-19.845l48.39-48.39l34.472,34.472L249.623,265.465z M205.212,170.871
	c0.841-7.208,2.288-14.399,4.304-21.513l0.757-2.487c1.299-4.364,2.827-8.691,4.569-12.97l27.488,27.488l-37.15,37.15
	C204.102,189.732,204.092,180.465,205.212,170.871z M284.756,161.388l51-51l34.472,34.472l-51,51L284.756,161.388z M372.893,30.826
	l-37.136,37.136L308.263,40.47c16.732-6.825,34.084-10.46,51.119-10.46C364.005,30.01,368.508,30.294,372.893,30.826z
	 M252.418,78.05c8.744-8.744,18.185-16.415,28.082-22.918l34.043,34.043l-51,51l-34.042-34.041
	C236.01,96.224,243.68,86.788,252.418,78.05z M183.627,234.402c5.747,14.101,14.106,26.814,24.939,37.647
	c10.728,10.728,23.56,19.103,37.832,24.883l-90.161,27.446L183.627,234.402z M402.565,228.198
	c-8.745,8.745-18.185,16.416-28.081,22.918l-34.043-34.043l51-51l34.041,34.041C418.974,210.024,411.304,219.46,402.565,228.198z"/>
</svg>