<svg version="1.0" xmlns="http://www.w3.org/2000/svg"
 viewBox="0 0 580 387"
 preserveAspectRatio="xMidYMid meet"
>

<g transform="translate(0.000000,387.000000) scale(0.100000,-0.100000)"
fill="#fff" stroke="none">
<path d="M3927 2261 c-76 -144 -135 -266 -132 -271 3 -6 33 -10 66 -10 43 0
61 -4 65 -14 3 -9 -63 -99 -171 -233 l-176 -218 267 -3 c179 -1 271 1 278 8 6
6 31 111 57 233 l45 222 115 5 114 5 28 140 c15 77 25 146 22 153 -3 9 -60 12
-235 12 -265 0 -240 -14 -214 120 8 45 14 89 12 97 -2 8 -65 -102 -141 -246z"/>
<path d="M2594 2300 c-117 -17 -209 -64 -283 -145 -61 -67 -96 -139 -112 -229
-30 -177 42 -323 195 -392 51 -24 78 -29 167 -32 225 -9 381 78 468 258 35 73
36 78 36 190 0 105 -2 119 -27 166 -51 97 -157 167 -281 185 -70 10 -90 10
-163 -1z m126 -243 c13 -7 35 -28 48 -47 51 -74 6 -217 -81 -259 -78 -38 -161
-21 -192 39 -31 61 -13 174 38 229 44 47 133 66 187 38z"/>
<path d="M1445 2278 c-3 -7 -36 -173 -75 -368 -39 -195 -73 -366 -76 -379 l-5
-23 278 5 c284 5 333 11 410 50 57 30 101 84 114 142 17 77 5 122 -44 169 -39
37 -40 39 -21 52 81 58 109 114 102 202 -4 49 -9 59 -45 93 -22 20 -58 43 -79
50 -59 19 -552 25 -559 7z m386 -188 c24 -14 25 -52 0 -74 -15 -13 -34 -16
-92 -14 l-74 3 1 33 c3 59 8 62 79 62 37 0 75 -5 86 -10z m-17 -301 c18 -27 8
-59 -25 -77 -15 -7 -53 -11 -99 -10 l-75 3 -3 38 c-5 59 8 67 104 67 73 0 85
-2 98 -21z"/>
<path d="M3247 2283 c-13 -20 -150 -742 -144 -756 6 -15 25 -17 157 -17 l150
0 1 -62 c2 -128 10 -120 91 105 43 117 79 219 80 227 2 11 -14 17 -67 25 -38
5 -75 14 -82 18 -15 9 -18 0 91 250 47 108 86 201 86 207 0 12 -356 14 -363 3z"/>
</g>
</svg>